<?xml version="1.0" encoding="UTF-8" standalone="no"?>
<!-- Created with Inkscape (http://www.inkscape.org/) -->

<svg
   xmlns:dc="http://purl.org/dc/elements/1.1/"
   xmlns:cc="http://creativecommons.org/ns#"
   xmlns:rdf="http://www.w3.org/1999/02/22-rdf-syntax-ns#"
   xmlns:svg="http://www.w3.org/2000/svg"
   xmlns="http://www.w3.org/2000/svg"
   xmlns:sodipodi="http://sodipodi.sourceforge.net/DTD/sodipodi-0.dtd"
   xmlns:inkscape="http://www.inkscape.org/namespaces/inkscape"
   width="210mm"
   height="297mm"
   id="svg2"
   version="1.1"
   inkscape:version="0.48.1 r9760"
   sodipodi:docname="intervalos.pdf">
  <defs
     id="defs4">
    <marker
       inkscape:stockid="Arrow1Lend"
       orient="auto"
       refY="0.0"
       refX="0.0"
       id="Arrow1Lend"
       style="overflow:visible;">
      <path
         id="path3844"
         d="M 0.0,0.0 L 5.0,-5.0 L -12.5,0.0 L 5.0,5.0 L 0.0,0.0 z "
         style="fill-rule:evenodd;stroke:#000000;stroke-width:1.0pt;marker-start:none;"
         transform="scale(0.8) rotate(180) translate(12.5,0)" />
    </marker>
    <marker
       inkscape:stockid="Arrow2Sstart"
       orient="auto"
       refY="0.0"
       refX="0.0"
       id="Arrow2Sstart"
       style="overflow:visible">
      <path
         id="path3871"
         style="font-size:12.0;fill-rule:evenodd;stroke-width:0.62500000;stroke-linejoin:round"
         d="M 8.7185878,4.0337352 L -2.2072895,0.016013256 L 8.7185884,-4.0017078 C 6.9730900,-1.6296469 6.9831476,1.6157441 8.7185878,4.0337352 z "
         transform="scale(0.3) translate(-2.3,0)" />
    </marker>
    <marker
       inkscape:stockid="Arrow1Mstart"
       orient="auto"
       refY="0.0"
       refX="0.0"
       id="Arrow1Mstart"
       style="overflow:visible">
      <path
         id="path3847"
         d="M 0.0,0.0 L 5.0,-5.0 L -12.5,0.0 L 5.0,5.0 L 0.0,0.0 z "
         style="fill-rule:evenodd;stroke:#000000;stroke-width:1.0pt;marker-start:none"
         transform="scale(0.4) translate(10,0)" />
    </marker>
    <marker
       inkscape:stockid="Arrow2Mend"
       orient="auto"
       refY="0.0"
       refX="0.0"
       id="Arrow2Mend"
       style="overflow:visible;">
      <path
         id="path3868"
         style="font-size:12.0;fill-rule:evenodd;stroke-width:0.62500000;stroke-linejoin:round;"
         d="M 8.7185878,4.0337352 L -2.2072895,0.016013256 L 8.7185884,-4.0017078 C 6.9730900,-1.6296469 6.9831476,1.6157441 8.7185878,4.0337352 z "
         transform="scale(0.6) rotate(180) translate(0,0)" />
    </marker>
    <marker
       inkscape:stockid="Arrow1Lstart"
       orient="auto"
       refY="0.0"
       refX="0.0"
       id="Arrow1Lstart"
       style="overflow:visible">
      <path
         id="path3841"
         d="M 0.0,0.0 L 5.0,-5.0 L -12.5,0.0 L 5.0,5.0 L 0.0,0.0 z "
         style="fill-rule:evenodd;stroke:#000000;stroke-width:1.0pt;marker-start:none"
         transform="scale(0.8) translate(12.5,0)" />
    </marker>
    <marker
       inkscape:stockid="Arrow1Mstart"
       orient="auto"
       refY="0"
       refX="0"
       id="Arrow1Mstart-2"
       style="overflow:visible">
      <path
         inkscape:connector-curvature="0"
         id="path3847-0"
         d="M 0,0 5,-5 -12.5,0 5,5 0,0 z"
         style="fill-rule:evenodd;stroke:#000000;stroke-width:1pt;marker-start:none"
         transform="matrix(0.4,0,0,0.4,4,0)" />
    </marker>
    <marker
       inkscape:stockid="Arrow2Mend"
       orient="auto"
       refY="0"
       refX="0"
       id="Arrow2Mend-6"
       style="overflow:visible">
      <path
         inkscape:connector-curvature="0"
         id="path3868-3"
         style="font-size:12px;fill-rule:evenodd;stroke-width:0.625;stroke-linejoin:round"
         d="M 8.7185878,4.0337352 -2.2072895,0.01601326 8.7185884,-4.0017078 c -1.7454984,2.3720609 -1.7354408,5.6174519 -6e-7,8.035443 z"
         transform="scale(-0.6,-0.6)" />
    </marker>
  </defs>
  <sodipodi:namedview
     id="base"
     pagecolor="#ffffff"
     bordercolor="#666666"
     borderopacity="1.0"
     inkscape:pageopacity="0.0"
     inkscape:pageshadow="2"
     inkscape:zoom="1.979899"
     inkscape:cx="277.48113"
     inkscape:cy="673.86492"
     inkscape:document-units="px"
     inkscape:current-layer="layer1"
     showgrid="false"
     inkscape:window-width="1280"
     inkscape:window-height="931"
     inkscape:window-x="0"
     inkscape:window-y="30"
     inkscape:window-maximized="1" />
  <metadata
     id="metadata7">
    <rdf:RDF>
      <cc:Work
         rdf:about="">
        <dc:format>image/svg+xml</dc:format>
        <dc:type
           rdf:resource="http://purl.org/dc/dcmitype/StillImage" />
        <dc:title></dc:title>
      </cc:Work>
    </rdf:RDF>
  </metadata>
  <g
     inkscape:label="Capa 1"
     inkscape:groupmode="layer"
     id="layer1">
    <path
       style="fill:none;stroke:#000000;stroke-width:0.92485911px;stroke-linecap:butt;stroke-linejoin:miter;stroke-opacity:1;marker-start:url(#Arrow1Mstart);marker-end:url(#Arrow2Mend)"
       d="m 157.54565,361.6479 21.38411,0"
       id="path3068"
       inkscape:connector-curvature="0" />
    <text
       xml:space="preserve"
       style="font-size:14.84404087px;font-style:normal;font-weight:normal;line-height:125%;letter-spacing:0px;word-spacing:0px;fill:#000000;fill-opacity:1;stroke:none;font-family:Sans"
       x="149.61177"
       y="289.88052"
       id="text4656"
       sodipodi:linespacing="125%"><tspan
         sodipodi:role="line"
         id="tspan4658"
         x="149.61177"
         y="289.88052">Frag 1</tspan></text>
    <text
       xml:space="preserve"
       style="font-size:14.84404087px;font-style:normal;font-weight:normal;line-height:125%;letter-spacing:0px;word-spacing:0px;fill:#000000;fill-opacity:1;stroke:none;font-family:Sans"
       x="378.2384"
       y="290.37189"
       id="text4656-1"
       sodipodi:linespacing="125%"><tspan
         sodipodi:role="line"
         id="tspan4658-7"
         x="378.2384"
         y="290.37189">Frag 2</tspan></text>
    <text
       xml:space="preserve"
       style="font-size:14.84404087px;font-style:normal;font-variant:normal;font-weight:normal;font-stretch:normal;text-align:start;line-height:125%;letter-spacing:0px;word-spacing:0px;writing-mode:lr-tb;text-anchor:start;fill:#000000;fill-opacity:1;stroke:none;font-family:Sans;-inkscape-font-specification:Sans"
       x="163.67857"
       y="383.79074"
       id="text5919"
       sodipodi:linespacing="125%"><tspan
         sodipodi:role="line"
         id="tspan5921"
         x="163.67857"
         y="383.79074">Duracion</tspan></text>
    <path
       style="fill:none;stroke:#000000;stroke-width:1px;stroke-linecap:butt;stroke-linejoin:miter;stroke-opacity:1"
       d="m 128.14286,350.21932 341.42857,0"
       id="path5953"
       inkscape:connector-curvature="0" />
    <g
       id="g6014"
       transform="translate(-4,90)">
      <rect
         y="236.71931"
         x="160.71428"
         height="22.5"
         width="15.772246"
         id="rect5957"
         style="fill:#0000ff;fill-opacity:1;stroke:#0000ff;stroke-width:0.83725071;stroke-opacity:1" />
      <rect
         y="236.80069"
         x="179.04245"
         height="22.5"
         width="5.415555"
         id="rect5957-3"
         style="fill:#0000ff;fill-opacity:1;stroke:#0000ff;stroke-width:0.49060303;stroke-opacity:1" />
    </g>
    <rect
       style="fill:#0000ff;fill-opacity:1;stroke:#0000ff;stroke-width:1.38805759;stroke-opacity:1"
       id="rect5957-6"
       width="43.350834"
       height="22.5"
       x="378.07193"
       y="327.80069" />
    <path
       style="fill:none;stroke:#000000;stroke-width:1px;stroke-linecap:butt;stroke-linejoin:miter;stroke-opacity:1"
       d="m 156.79565,351.29075 0,17.85715 0.71429,1.07142"
       id="path6025"
       inkscape:connector-curvature="0" />
    <path
       style="fill:none;stroke:#000000;stroke-width:1px;stroke-linecap:butt;stroke-linejoin:miter;stroke-opacity:1"
       d="m 179.48902,350.75504 0,17.85715 0.71429,1.07142"
       id="path6025-7"
       inkscape:connector-curvature="0" />
    <path
       style="fill:none;stroke:#000000;stroke-width:1.64960885px;stroke-linecap:butt;stroke-linejoin:miter;stroke-opacity:1"
       d="m 157.12045,355.3979 0,48.59304 0.71429,2.91556"
       id="path6025-4"
       inkscape:connector-curvature="0" />
    <path
       style="fill:none;stroke:#000000;stroke-width:1.64960885px;stroke-linecap:butt;stroke-linejoin:miter;stroke-opacity:1"
       d="m 378.20271,350.54412 0,48.59304 0.71429,2.91556"
       id="path6025-4-9"
       inkscape:connector-curvature="0" />
    <path
       style="fill:none;stroke:#000000;stroke-width:1.01092136px;stroke-linecap:butt;stroke-linejoin:miter;stroke-opacity:1;marker-start:url(#Arrow1Lstart);marker-end:url(#Arrow1Lend)"
       d="m 157.14286,398.79075 218.99184,0"
       id="path6081"
       inkscape:connector-curvature="0" />
    <text
       xml:space="preserve"
       style="font-size:14.84404087px;font-style:normal;font-variant:normal;font-weight:normal;font-stretch:normal;text-align:start;line-height:125%;letter-spacing:0px;word-spacing:0px;writing-mode:lr-tb;text-anchor:start;fill:#000000;fill-opacity:1;stroke:none;font-family:Sans;-inkscape-font-specification:Sans"
       x="231.19559"
       y="421.61035"
       id="text5919-9"
       sodipodi:linespacing="125%"><tspan
         sodipodi:role="line"
         id="tspan5921-8"
         x="231.19559"
         y="421.61035">Separación</tspan></text>
    <path
       style="fill:none;stroke:#000000;stroke-width:1.15822327px;stroke-linecap:butt;stroke-linejoin:miter;stroke-opacity:1;marker-start:none;marker-end:url(#Arrow1Lend)"
       d="m 287.40905,371.42964 c -1.43242,-0.0766 -3.57533,-2.3773 -5.01149,-2.37265 -0.45414,0.001 -0.86734,0.27217 -1.32031,0.24795 -3.66039,-0.19573 -7.01698,-1.68724 -10.58715,-2.15887 -1.41364,-0.18675 -2.88353,-0.0431 -4.29719,-0.22978 -1.30332,-0.17217 -2.53675,-0.56038 -3.80514,-0.84057 -1.26838,-0.28018 -2.58258,-0.46562 -3.80513,-0.84056 -0.88955,-0.27281 -1.58693,-0.83103 -2.48484,-1.08852 -0.94647,-0.27142 -2.01903,-0.22895 -2.97687,-0.47772 -0.91958,-0.23884 -3.27115,-1.43298 -4.14137,-1.81419 -0.27609,-0.12095 -0.74902,-0.13336 -0.82828,-0.36284 -0.0793,-0.22949 0.32803,-0.40719 0.49204,-0.61079 0.16401,-0.20359 0.32804,-0.40719 0.49205,-0.61078 0.82006,-1.01798 1.64012,-2.03596 2.46018,-3.05393 0.16402,-0.2036 0.32803,-0.40719 0.49204,-0.61079 0.16401,-0.20359 0.22187,-0.48276 0.49204,-0.61078 0.38207,-0.18103 0.93824,-0.0669 1.32031,-0.24795 0.23826,-0.1129 1.71086,-2.12375 1.96815,-2.44314 0.16403,-0.2036 0.5713,-0.3813 0.49205,-0.61079 -0.0793,-0.22949 -0.55219,-0.24189 -0.82827,-0.36283 -0.2761,-0.12096 -0.55218,-0.2419 -0.82828,-0.36284 -0.37302,-0.16341 -2.15788,-1.07103 -2.48483,-1.08852 -0.45297,-0.0243 -0.86678,0.23055 -1.32032,0.24796 -0.71711,0.0274 -1.43238,-0.0766 -2.14858,-0.1149 -0.7162,-0.0383 -1.44695,-0.002 -2.14859,-0.11488 -1.2938,-0.20764 -2.51137,-0.63295 -3.80516,-0.84057 -3.28111,-0.52657 -1.46744,0.42181 -5.61749,0.0182 -2.6254,-0.25534 -5.00364,-1.33678 -7.61028,-1.68113 -8.8568,-1.17001 0.53516,0.95541 -9.42265,-0.82239 -5.14755,-0.91902 -10.12391,-2.30011 -15.22056,-3.36227 -2.24978,-0.46888 -4.47235,-1.05124 -6.78201,-1.31829 -22.17268,-1.18564 0.92458,0.60819 -13.22779,-1.66298 -1.40331,-0.2252 -2.87837,-0.0657 -4.29719,-0.22978 -0.31724,-0.0367 -0.51707,-0.42128 -0.82827,-0.36284 -0.3112,0.0585 1.06916,1.44521 0.75796,1.50365 -0.0425,0.008 1.28749,-1.00052 -3.73483,-1.98137"
       id="path7281"
       inkscape:connector-curvature="0"
       sodipodi:nodetypes="ccsscsssscccsscccccccccsccsssscscccc" />
    <text
       xml:space="preserve"
       style="font-size:14.84404087px;font-style:normal;font-variant:normal;font-weight:normal;font-stretch:normal;text-align:start;line-height:125%;letter-spacing:0px;word-spacing:0px;writing-mode:lr-tb;text-anchor:start;fill:#000000;fill-opacity:1;stroke:none;font-family:Sans;-inkscape-font-specification:Sans"
       x="195.77524"
       y="319.32861"
       id="text7865"
       sodipodi:linespacing="125%"><tspan
         sodipodi:role="line"
         id="tspan7867"
         x="195.77524"
         y="319.32861">vacio &gt; granularidad</tspan></text>
    <path
       style="fill:none;stroke:#000000;stroke-width:1.52386034px;stroke-linecap:butt;stroke-linejoin:miter;stroke-opacity:1"
       d="m 157.05758,306.23932 0,41.46699 0.71429,2.488"
       id="path6025-7-8"
       inkscape:connector-curvature="0" />
    <path
       style="fill:none;stroke:#000000;stroke-width:1.52386034px;stroke-linecap:butt;stroke-linejoin:miter;stroke-opacity:1"
       d="m 179.22709,306.0024 0,41.46699 0.71429,2.488"
       id="path6025-7-8-1"
       inkscape:connector-curvature="0" />
    <path
       style="fill:none;stroke:#000000;stroke-width:1.52386034px;stroke-linecap:butt;stroke-linejoin:miter;stroke-opacity:1"
       d="m 378.13983,306.81326 0,41.46699 0.71429,2.488"
       id="path6025-7-8-1-9"
       inkscape:connector-curvature="0" />
    <text
       xml:space="preserve"
       style="font-size:7.83236456px;font-style:normal;font-variant:normal;font-weight:normal;font-stretch:normal;text-align:start;line-height:125%;letter-spacing:0px;word-spacing:0px;writing-mode:lr-tb;text-anchor:start;fill:#000000;fill-opacity:1;stroke:none;font-family:Sans;-inkscape-font-specification:Sans"
       x="262.64365"
       y="377.55869"
       id="text7865-0"
       sodipodi:linespacing="125%"><tspan
         sodipodi:role="line"
         id="tspan7867-6"
         x="262.64365"
         y="377.55869">vacio &lt; granularidad</tspan></text>
  </g>
</svg>
